<?xml version="1.0" encoding="UTF-8" standalone="no"?>
<svg
   id="Layer_1"
   data-name="Layer 1"
   viewBox="0 0 871.09901 222.25185"
   version="1.1"
   sodipodi:docname="celestia_cards.svg"
   width="871.099"
   height="222.25185"
   inkscape:version="1.3.2 (091e20e, 2023-11-25)"
   xmlns:inkscape="http://www.inkscape.org/namespaces/inkscape"
   xmlns:sodipodi="http://sodipodi.sourceforge.net/DTD/sodipodi-0.dtd"
   xmlns="http://www.w3.org/2000/svg"
   xmlns:svg="http://www.w3.org/2000/svg"
   xmlns:rdf="http://www.w3.org/1999/02/22-rdf-syntax-ns#"
   xmlns:cc="http://creativecommons.org/ns#"
   xmlns:dc="http://purl.org/dc/elements/1.1/">
  <sodipodi:namedview
     id="namedview1"
     pagecolor="#ffffff"
     bordercolor="#000000"
     borderopacity="0.25"
     inkscape:showpageshadow="2"
     inkscape:pageopacity="0.0"
     inkscape:pagecheckerboard="0"
     inkscape:deskcolor="#d1d1d1"
     inkscape:zoom="0.41627715"
     inkscape:cx="433.60535"
     inkscape:cy="110.5033"
     inkscape:window-width="1328"
     inkscape:window-height="449"
     inkscape:window-x="0"
     inkscape:window-y="38"
     inkscape:window-maximized="0"
     inkscape:current-layer="Layer_1" />
  <defs
     id="defs1">
    <style
       id="style1">.cls-1{fill:#7b2bf9;}</style>
  </defs>
  <title
     id="title1">Celestia-logo-color-black</title>
  <path
     class="cls-1"
     d="m 870.40853,138.95948 -33.18,-57.549993 a 5.81,5.81 0 0 0 -9.94,0 l -33.18,57.549993 a 5.22,5.22 0 0 0 -0.65,2.28 5.84,5.84 0 0 0 5.57,6.23 c 2.27,0.05 4,-1.09 5.41,-3.53 l 5.13,-8.92 a 3.75,3.75 0 0 1 3.26,-1.89 h 38.74 a 3.76,3.76 0 0 1 3.26,1.89 l 5.13,8.92 c 1.29,2.31 3,3.46 5.14,3.53 a 5.78,5.78 0 0 0 6,-5.73 6.53,6.53 0 0 0 -0.69,-2.78 z m -27.67,-17.3 h -21 a 2.57,2.57 0 0 1 -2.22,-3.85 l 10.55,-18.209993 a 2.57,2.57 0 0 1 4.45,0 l 10.48,18.209993 a 2.57,2.57 0 0 1 -2.26,3.85 z m -622.84,-33.589993 a 111.21,111.21 0 0 0 -187.410004,-55.5 112.39,112.39 0 0 0 -13.61,16.48 39.44,39.44 0 0 0 -3.18,5 111.23,111.23 0 1 0 197.240004,101.999993 41,41 0 0 0 1.76,-4.23 112.28,112.28 0 0 0 5.26,-63.409993 z m -38.57,-50.85 c 0.64,0.61 1.27,1.23 1.9,1.86 a 101.71,101.71 0 0 1 22.46,33.82 1.72,1.72 0 0 1 -1.9,2.34 51,51 0 0 0 -9.87,-0.7 5.14,5.14 0 0 1 -5.17,-4.22 149.64,149.64 0 0 0 -8.54,-30.36 l -0.63,-1.51 a 1.09,1.09 0 0 1 1.75,-1.23 z m 10.57,65.239993 a 1.19,1.19 0 0 1 2.15,-0.72 c 0.84,1.17 1.64,2.35 2.41,3.53 q 1.53,2.35 2.85,4.68 a 2.55,2.55 0 0 1 -0.33,3 q -1.79,2 -3.88,4.06 l -1.53,1.54 a 1,1 0 0 1 -1.73,-0.77 c 0.07,-1.67 0.11,-3.35 0.14,-5 0.03,-3.49 0.01,-6.92 -0.08,-10.32 z M 51.898526,28.129487 a 101.2,101.2 0 0 1 59.200004,-18.9200005 102.81,102.81 0 0 1 16.79,1.3700005 1.71,1.71 0 0 1 0.79,3 c -5.32,4.18 -10.27,10.36 -14.65,18.37 a 4.78,4.78 0 0 1 -5.48,2.31 138.45,138.45 0 0 0 -41.980004,-5.53 95.53,95.53 0 0 0 -13.81,1.46 1.15,1.15 0 0 1 -0.85,-2.06 z m -14.56,152.339993 c -2.14,-4.05 0.63,-13.42 14.71,-27.66 v 0 a 3.51,3.51 0 0 0 -0.31,-5.22 l -1.68,-1.34 a 3.51,3.51 0 0 0 -4.7,0.25 l -0.55,0.55 c -7,7.22 -12,13.91 -14.72,19.92 a 2.4,2.4 0 0 1 -4.18,0.33 101.29,101.29 0 0 1 -16.7900005,-56.11 102.4,102.4 0 0 1 2.2200005,-21.279993 1.001012,1.001012 0 0 1 2,-0.09 84.89,84.89 0 0 0 10.31,21.519993 135.18,135.18 0 0 0 24.87,28 v 0 c 3.42,3 7,5.83 10.79,8.59 a 190.45,190.45 0 0 0 24.74,15.35 c 3.91,2 7.72,4 11.62,5.72 a 8.83,8.83 0 0 0 6.860004,0.19 q 2.76,-1.08 5.55,-2.25 a 4.43,4.43 0 0 0 2.59,-5.18 c -0.07,-0.27 -0.12,-0.48 -0.15,-0.61 a 197.93,197.93 0 0 1 -5,-42.71 v 0 -0.55 c 0,-0.83 0,-1.67 0,-2.5 0,-0.26 0,-0.71 0,-1 v -0.32 0 c 0,-0.95 0,-1.9 0,-2.86 0,-2.61 0.14,-5.21 0.28,-7.78 v 0 c 1,-18.389993 4.07,-35.669993 9,-50.199993 a 2.58,2.58 0 0 0 -1.6,-3.27 c -1.32,-0.44 -2.63,-0.87 -3.93,-1.28 a 2.56,2.56 0 0 0 -3.19,1.61 c -5.37,15.78 -8.690004,34.51 -9.580004,54.329993 a 7.45,7.45 0 0 1 -3.64,6.08 280.38,280.38 0 0 0 -31.83,21.77 5.16,5.16 0 0 1 -6.59,-0.14 125.59,125.59 0 0 1 -23.12,-26 c -11.67,-17.919993 -14.45,-34.799993 -7.81,-47.519993 l 0.05,-0.09 c 0.85,-1.41 1.73,-2.79 2.64,-4.16 7.63,-10.09 21.82,-15.94 40.64,-16.6 q 1.78,-0.06 3.6,-0.06 a 132.8,132.8 0 0 1 36.540004,5.54 v 0 l 0.83,0.25 0.64,0.18 v 0 q 4.37,1.31 8.75,2.88 v 0 l 0.21,0.07 2.28,0.85 0.72,0.27 0.69,0.26 v 0 a 183.63,183.63 0 0 1 18.38,8.3 176.31,176.31 0 0 1 31.87,21.12 c -17.87,4.09 -38.63,12 -59.52,22.639993 a 3,3 0 0 0 -1.65,2.54 c -0.08,1.29 -0.17,3.89 -0.24,6 a 1.69,1.69 0 0 0 2.48,1.55 v 0 c 20.67,-10.859993 41.31,-18.999993 59,-23.259993 a 6.63,6.63 0 0 0 5,-7.36 q -0.49,-3.54 -1.1,-7 a 11.59,11.59 0 0 0 -4.39,-7.18 188,188 0 0 0 -27.24,-17.21 193.46,193.46 0 0 0 -20,-9 2.51,2.51 0 0 1 -1.3,-3.58 c 6.91,-12.37 15.13,-19.29 23.14,-19.29 h 0.25 c 9.45,0.17 18.87,10 25.84,27 a 141.36,141.36 0 0 1 8.22,29.26 v 0 c 0.8,4.6 1.44,9.35 1.92,14.22 l -0.13,0.08 0.17,0.17 a 222.27,222.27 0 0 1 1,25.389993 c -0.1,5.5 -0.39,10.92 -0.86,16.23 a 288.35,288.35 0 0 1 -45.45,29.48 c -5.64,3 -11.29,5.77 -16.87,8.34 l -0.26,0.12 -1.29,0.58 v 0 q -6.94,3.15 -13.72,5.8 v 0 l -0.76,0.29 -1,0.37 -2.26,0.86 -0.620004,0.23 -2.73,1 -0.33,0.13 v 0 a 186.82,186.82 0 0 1 -27.27,7.66 c -20.31,3.89 -29.81,0.89 -32.04,-3.21 z m 27.95,-39.59 a 265.3,265.3 0 0 1 31.07,-21.53 209.59,209.59 0 0 0 4.730004,41.77 q -6.420004,-2.75 -12.790004,-6 a 180.46,180.46 0 0 1 -23.01,-14.24 z m 59.000004,71.46 a 102.54,102.54 0 0 1 -13.16,0.84 101.23,101.23 0 0 1 -55.060004,-16.1 1.37,1.37 0 0 1 0.68,-2.52 h 0.77 a 109.58,109.58 0 0 0 13.56,-1.83 207.44,207.44 0 0 0 34.250004,-10.11 2.16,2.16 0 0 1 2.75,1.21 v 0 c 4.72,11.48 10.52,20.15 17,25.67 a 1.63,1.63 0 0 1 -0.81,2.84 z m 43.12,-27.23 c -7.29,14.32 -16.25,22.36 -24.94,22.2 -9.45,-0.17 -18.87,-10 -25.85,-27 v 0 a 2.15,2.15 0 0 1 1.14,-2.78 l 0.22,-0.09 a 2.13,2.13 0 0 1 1.45,-0.1 141.68,141.68 0 0 0 38,5.57 c 1.31,0 2.61,0 3.89,-0.07 1.51,-0.05 3,-0.13 4.46,-0.25 a 1.74,1.74 0 0 1 1.61,2.52 z m 3.16,-12.32 a 86.79,86.79 0 0 1 -9.59,0.85 120.11,120.11 0 0 1 -25.69,-2.05 1.15,1.15 0 0 1 -0.3,-2.16 c 1.93,-1 3.87,-2 5.8,-3 a 316,316 0 0 0 37.35,-23.13 1.15,1.15 0 0 1 1.81,1.12 165.39,165.39 0 0 1 -6.38,25.84 3.76,3.76 0 0 1 -3,2.53 z m 15,8.09 c -0.77,0.82 -1.55,1.63 -2.35,2.43 q -2.09,2.09 -4.27,4 a 1.13,1.13 0 0 1 -1.78,-1.32 l 0.44,-1 q 0.92,-2 1.77,-4.14 a 1.17,1.17 0 0 1 0.77,-0.67 c 1.45,-0.36 2.86,-0.77 4.23,-1.21 a 1.13,1.13 0 0 1 1.19,1.91 z m 20.5,-32.35 c -0.49,1.25 -1,2.48 -1.55,3.71 -0.08,0.17 -0.16,0.34 -0.25,0.51 -3.36,6.47 -9,11.57 -16.54,15.12 a 2.18,2.18 0 0 1 -3,-2.56 193.5,193.5 0 0 0 5.62,-28.87 7.68,7.68 0 0 1 2.62,-4.89 c 3.1,-2.69 6,-5.37 8.66,-8 v 0 a 2.45,2.45 0 0 1 4.08,1 c 2.63,8.72 2.78,16.87 0.37,23.98 z m 2,-47.78 a 2.08,2.08 0 0 1 -3.56,0.11 l -0.39,-0.61 a 120.25,120.25 0 0 0 -10.45,-13.719993 1.7,1.7 0 0 1 1.28,-2.81 v 0 c 9.14,0 13.93,2.26 15.39,5 1.3,2.32 0.93,6.35 -2.22,12.009993 z m 4.93,13.48 a 0.64,0.64 0 0 1 -1.23,0.23 c -0.11,-0.27 -0.23,-0.55 -0.35,-0.82 a 1.53,1.53 0 0 1 0.17,-1.53 l 0.37,-0.49 c 0.45,-0.58 1.09,-0.49 1.09,0.15 0.05,0.85 0.03,1.59 0,2.46 z m 323.64,-24.119993 h 38.34 a 5.75,5.75 0 0 0 5.69,-6.44 5.84,5.84 0 0 0 -5.84,-5 h -47.61 a 5.75,5.75 0 0 0 -5.73,5.73 v 57.329993 a 5.75,5.75 0 0 0 5.73,5.73 h 47.81 a 5.75,5.75 0 0 0 5.69,-6.43 5.84,5.84 0 0 0 -5.84,-5 h -38.19 a 3.73,3.73 0 0 1 -3.73,-3.73 v -9.75 a 3.73,3.73 0 0 1 3.73,-3.73 h 28.78 a 5.75,5.75 0 0 0 5.69,-6.43 5.84,5.84 0 0 0 -5.84,-5 h -28.63 a 3.73,3.73 0 0 1 -3.73,-3.73 v -9.749993 a 3.73,3.73 0 0 1 3.73,-3.8 z m 117.19,22.279993 c -5.26,-3.35 -12.34,-5.07 -21.23,-5.07 -11.76,0 -17.69,-2.87 -17.69,-8.609993 0,-5.74 5.93,-8.6 17.69,-8.6 a 49.39,49.39 0 0 1 18.69,3.62 c 3.45,1.05 5.84,-0.19 7.17,-3.54 1.15,-3 -0.38,-5.83 -3.53,-7.26 a 55.1,55.1 0 0 0 -22.28,-4.3 c -8.7,0 -15.68,1.81 -21.13,5.35 a 16.8,16.8 0 0 0 -8,14.72 c 0,6.599993 2.68,11.669993 7.94,14.999993 5.26,3.33 12.33,5.07 21.22,5.07 11.76,0 17.69,2.87 17.69,8.61 0,5.74 -5.93,8.6 -17.69,8.6 h -2.87 a 53.2,53.2 0 0 1 -18.55,-3.63 5.59,5.59 0 0 0 -7.26,3.44 5.86,5.86 0 0 0 3.54,7.46 56.75,56.75 0 0 0 22.27,4.2 h 2.87 c 8.7,0 15.68,-1.81 21,-5.35 a 16.68,16.68 0 0 0 8.13,-14.72 c 0,-6.58 -2.68,-11.65 -7.93,-14.99 z m 114.78,-33.749993 a 5.75,5.75 0 0 0 -5.74,5.73 v 57.359993 a 5.74,5.74 0 0 0 11.47,0 V 84.369487 a 5.75,5.75 0 0 0 -5.68,-5.73 z m -30.32,0 h -57.16 a 5.74,5.74 0 0 0 -5.69,6.43 5.82,5.82 0 0 0 5.84,5 h 19.06 a 3.74,3.74 0 0 1 3.74,3.74 v 47.919993 a 5.75,5.75 0 0 0 6.43,5.69 5.84,5.84 0 0 0 5,-5.85 V 93.849487 a 3.73,3.73 0 0 1 3.74,-3.74 h 19.2 a 5.76,5.76 0 0 0 5.7,-6.44 5.84,5.84 0 0 0 -5.81,-5.03 z m -241.33,57.359993 h -38.17 a 3.75,3.75 0 0 1 -3.75,-3.74 V 84.519487 a 5.84,5.84 0 0 0 -5,-5.84 5.75,5.75 0 0 0 -6.44,5.69 v 57.359993 a 5.75,5.75 0 0 0 5.74,5.73 h 47.8 a 5.74,5.74 0 0 0 5.69,-6.43 5.82,5.82 0 0 0 -5.87,-5.03 z m -186.93,-45.889993 a 21.69,21.69 0 0 1 16.15,6.79 5.82,5.82 0 0 0 9.85,-4.11 6.06,6.06 0 0 0 -2.39,-4.59 34.33,34.33 0 1 0 0.67,49.229993 5.75,5.75 0 0 0 -8.13,-8.12 21.93,21.93 0 0 1 -16.15,6.69 22.84,22.84 0 0 1 -22.95,-22.95 21.93,21.93 0 0 1 6.69,-16.149993 22.25,22.25 0 0 1 16.26,-6.79 z m 66,0 h 38.33 a 5.76,5.76 0 0 0 5.7,-6.44 5.84,5.84 0 0 0 -5.85,-5 h -47.7 a 5.76,5.76 0 0 0 -5.74,5.73 v 57.329993 a 5.76,5.76 0 0 0 5.74,5.73 h 47.8 a 5.75,5.75 0 0 0 5.7,-6.43 5.84,5.84 0 0 0 -5.85,-5 h -38.18 a 3.73,3.73 0 0 1 -3.73,-3.74 v -9.76 a 3.73,3.73 0 0 1 3.73,-3.74 h 28.77 a 5.75,5.75 0 0 0 5.7,-6.43 5.84,5.84 0 0 0 -5.85,-5 h -28.62 a 3.73,3.73 0 0 1 -3.73,-3.74 v -9.729993 a 3.73,3.73 0 0 1 3.73,-3.78 z"
     id="path1" />
  <metadata
     id="metadata1">
    <rdf:RDF>
      <cc:Work
         rdf:about="">
        <dc:title>Celestia-logo-color-black</dc:title>
      </cc:Work>
    </rdf:RDF>
  </metadata>
</svg>
